<svg xmlns="http://www.w3.org/2000/svg" id="Layer_1" data-name="Layer 1" version="1.1" viewBox="0 0 634 638.5">
  <defs>
    <style>
      .cls-1{fill:#fff;}.cls-3{stroke-width:0;fill:#000}
    </style>
  </defs>
  <g>
    <path d="M476.9 164.7c-1.3-3.9-2.1-8-3.2-11.9-.9-3-1-6.2-2.6-9-2.4-4.4-10.2-2.3-13.8-1.4a50.3 50.3 0 0 0-18.4 8.7c-4.4 3.2-11.6 8.1-13.3 13.6a48.6 48.6 0 0 0-18.5-3.2c-5.6.4-10.2 4.5-13.8 8.4-2.2-1.9-3.9-4.1-6.3-5.8-3-2.1-6.4-3.7-9.5-5.6-5.8-3.5-11.5-9.1-18.1-11-4.4-1.3-5.6 4.3-7 7-3.1 6.1-6.5 12-6.8 19 0 .6.4 1 1 .8 3.5-1.1 6.8-2.6 10.6-2.7 5.4-.2 8.1 4.9 8.8 9.4.3 1.5 2 0 2.2-.9 2.5-3.7 4.9-4.3 7-1.8.6.8.9 1.8 1.2 2.7.5 1.2 2-.5 2.1-1.1 3.3-3.1 5.3-3.4 6-.8l1.2 3c.3.8 1.4.2 1.7-.2l.7-.9c-.1 1.5 0 3 .2 4.7 1.3 9.5 8.3 15 16.6 16.7a26 26 0 0 0-1 13.8c-3 .6-6.2 2.4-5.7 5.8.4 2.6 3.4 1.7 5.5.4 1 3.3 4.9 2.7 6.4.6 2.4.9 5.6-.3 5.8-3.3.1-2.7-1.4-4.4-3.9-5.2-.6-.2-1.3.2-1.5-.8a20 20 0 0 1-.4-4.2c0-2.2.6-4.3 1.2-6.4a28.8 28.8 0 0 0 11.9-2.8l.5.1c5.4 0 6.8 4.7 8 9.1.5 1.9 1 2.4-.6 3.9-.8.8-.8 1.7-.6 2.8.5 3.3 4.2 3.8 6.4 2.2 2.1 2.7 7.8-1.3 7.1-4.3 1.7-.5 3.3-1.6 2.5-3.6-1.2-3.1-5-3-7.6-1.8a15.7 15.7 0 0 0-9.2-13c4.2-4 7-9.4 6.6-15.4a22 22 0 0 0-1.6-6.8c.2-.2.3-.5.3-.7.2-1.8.7-8.4 5.2-5.5 1.7 1.1 2.8 3.1 4 4.7.7.9 2.1-.2 2.1-1.1v-5.3c2.1-2.8 3.9-3.3 5.4-1.4 1.3 1.1 2.2 3 2.7 4.6.4 1.3 2.2.1 2.2-.9 0-1.5 0-2.9.2-4.4.4-4.4 5.4-4.8 8.6-3.7 3.6 1.1 6.6 4.5 9.7 6.6.8.6 2.2-.7 1.9-1.6Z" class="cls-3"/>
    <path d="M403.2 173.8c-1.7 0-4.2 2.8-4.2 4.1 0 1.6.4 3.2 1.8 4.2 3.8 2.7 10.7-.4 8.8-5.6-.9-2.2-3.7-2.8-5.9-2.7h-.6Zm12.4-2.4c-.9 0-2.1 1.4-2.1 2.1 0 .8.2 1.7.9 2.2 1.9 1.4 5.5-.2 4.5-2.8-.4-1.1-1.9-1.4-3-1.4h-.3Z" class="cls-1"/>
  </g>
  <g>
    <path d="M386.3 53.2c-4.2-5.5-12.9-5.7-19-5.4-8.2.4-16.2 3.6-22.7 8.7a36.5 36.5 0 0 0-7.1-14.5c1.9-4.7 4.8-8.2 8.9-11.3.5-.4 1-1.8 0-1.8-6.3 0-13-1.2-18.6 1.9.4-2.4 1.4-4.5 4.2-5.5.7-.3 1.8-2.2.4-2.1-6.2.3-11.4 3.1-15.3 7.8-1.3-3.3-.7-7 1.8-9.7.7-.8.3-1.9-.8-1.5-8.3 3.4-11.2 8.6-10.1 17.4a25 25 0 0 0-10 16.2v.2c-9.9-5.4-21.6-9-31.2-1.2-8.2 6.6-6.3 17.9-3.7 26.8.2.7.9.6 1.4.2 2.7-2.1 5.3-4.5 7.9-6.8l3.9-3.4c2.9-2.4 4.1.8 5.7 3.2.5.8 1.4 0 1.7-.5l3.4-4.8c.6.9 1.1 1.8 1.8 2.6.3.4.9.4 1.3 0 2-1.8 3.6-4.6 7.2-2.5l.3 10.3c0 8.9-.3 17.7-1 26.5v.3c0 5.4 2.1 14.3 7.6 16.3 7.9 3 5.2-12.3 5-15.2-.4-5.2-.6-12.4 4.6-15.3 5.2-2.9 14.3-.6 17.2 4.5 1.9 3.3 1.1 8.4 1.3 12 .2 3.7.9 7.3 3.3 10.1 5.7 6.7 8.6-1.6 9.1-6.4 1-10.3 1.2-21 1.6-31.3v-6.8c4.8-5.1 11.7-2.3 14 3.5.3.7 1.3.2 1.6-.2a43 43 0 0 0 3.5-5.2c2.3 2.5 3.6 5.6 5.7 8.3.6.8 1.6 0 1.9-.7l1-4.1c2.5 3.8 3.8 8.2 6.3 12 .6.9 1.6-.1 1.9-.7 3.3-9.1 10.8-22.8 3.9-31.9ZM345 58.3v.3-.3Z" class="cls-3"/>
    <path d="M306.8 59.6c1 6.1-1.6 11.5-.6 17.5 1.3 8.3 10.2 6.4 16.9 6.1 8.9-.3 15.6 0 16.3-10.5.6-8 .3-16.3-9.2-18.2-4.5-1-21.9 0-23.5 3.9l.2 1.2Z" class="cls-1"/>
    <path d="M312.6 63.8c.3.7 1.3.2 1.6-.2 1.6-2.3 2.1-4.9 2.9-7.4 1.4 2.5 2.6 5.1 4.2 7.6.5.7 1.4 0 1.7-.5 1.1-2.1 1.9-4.2 2.5-6.4l4.3 6.9c.3.5 1 .4 1.3 0 2.5-2.4 3.1-5.3 3.1-8.7 0-1.9-3.5-4-4.7-4.8-6.3-3.9-15.3 1.3-20.8 4.7-.8.2-1.4 1.4-.8 2l.3.2c2.4 1.3 3.3 4.4 4.3 6.6Zm24.1 18c-1-2.8-1.9-5.5-3.5-8-.5-.7-1.4 0-1.7.5-1.3 2.2-2 4.8-3.1 7.1-.5-2-1.1-3.9-2.5-5.6-.4-.6-1.2-.3-1.6.2a37.6 37.6 0 0 0-3.9 5.9 18 18 0 0 0-2.2-6.1c-.5-.7-1.5 0-1.7.5a25.8 25.8 0 0 1-5.4 6.9h-.5c-1-.1-2 1.9-.7 2.1h.2-.2c2.9.5 6 .7 9 .7.1.2.3.3.6.2l.4-.2c5.1 0 10.3-.7 15.2-2.2l.5-.1c.7-.2 1.3-1 1-1.8Z" class="cls-3"/>
  </g>
  <g>
    <path d="M601.2 445a45.2 45.2 0 0 0-33.2-29c-14-3.4-30.6-5-44.3.2a20.8 20.8 0 0 0-13.7 24.2c.2 1.3 1.6.9 2.3.4 3.9-2.7 7.7-6.2 11-.6.6 1.1 2 .3 2.6-.3.9-1 2.2-1.6 3.4-2.3 1.1 1.5 2.5 2.6 3.5 4.2.4.7 1.1.6 1.8.3 2.3-1 4.2-2.4 6.1-4 2.2 5.5 6.8 4.1 11.3 1.1 2.2 3.8 1.6 7.4-1.4 10.6-1.4-1.2-3.1-2.1-4.2-3.6-.6-.8-1.5-.6-2.2 0-3.7 2.9-7.6 6.3-10.5.6-.7-1.3-2.4 0-2.9.8-2.7 4.7-5.6.6-7.1-1.3-.9-1.1-2.3-.2-2.9.8-2 3.2-5.1 4.8-6.5.1-.5-1.6-2.5-.7-3 .4-3.7 7.9-1.2 15.5 6.5 19.7 8.4 4.6 16.8 3.9 25.7 1.4 4.2-1.2 8.5-2.6 13-2.6 6.6 0 9.3 6.1 10.6 11.6 3.2 13-.6 27 .3 40.2.4 7.1 1.9 14.2 2.9 21.2 1.1 8.3 1.8 16.7 2 25.1.3 15.4-1.4 30.8-2.3 46.2l-.8 16.8c-.1 3.4-.2 7.6 2.6 10 6.1 5.4 10.2-6.2 10.8-10.1.6-3.7-.1-7.6 0-11.4 0-4.8.6-9.6 2.1-14.2 1-2.9 4.4-7.8 6.3-3.2 1.4 3.4 1.1 7.8 1.1 11.3 0 7.4-1 14.8-.4 22.2.3 3.4 2.8 7.2 6.4 4.2 3.9-3.2 4.6-10.4 5.4-15a163 163 0 0 0 2.4-20.9c.6-10.3.4-20.7.6-31 1.7-23.5 1.6-46.8 1.6-70.3 0-18-.5-36.7-6.8-53.8Z" class="cls-3"/>
    <path d="M528.6 423.2c-2.2.6-3.3.7-3.3 2.5s4.2 1.9 5.6 1.8c2.4 0 6.4-1.3 3.6-3.8-1.3-1.2-4.1-.8-5.8-.6Zm19.3 0c-2.2.6-3.3.7-3.3 2.5s4.2 1.9 5.6 1.8c2.4 0 6.4-1.3 3.6-3.8-1.3-1.2-4.1-.8-5.8-.6Z" class="cls-1"/>
  </g>
  <g>
    <path d="m346.9 362.7.2-.4-5.6 1.1 5.4-.7Z" style="stroke-width:0;fill:none"/>
    <path d="M335.3 364.7c3.2 2.5 5.7 5.8 8.4 8.7 1-3.6 1.6-7.4 3.3-10.8l-5.4.7-6.3 1.3Zm34.3 3.1c-.2 2.7-.9 5.3-1.6 7.9l.3-.2 6.8-5.5a12.5 12.5 0 0 0-5.5-2.2ZM351 390.9l1.6-1.3a48 48 0 0 1 5-5.1 28.8 28.8 0 0 0-7.3-3c.3 3.1.6 6.3.7 9.4Z" class="cls-1"/>
    <path d="M430.3 403.1c6.5 4.4 17 2.2 22.2-3.1 5.4-5.5.8-13.5-5.6-15.2-5.7-1.5-10.9 2.1-10 8.1.2 1.1 1.6.3 1.9-.3 1.1-2 3.3-1.9 4.6-.2 3.4 4.2-4.2 5-5.7 5-5.3 0-5.9-4.4-5.8-8.6 0-2.4 0-4.5-1.1-6.6-1.3-2.4-3.8-3.9-5.6-5.9a40.8 40.8 0 0 0 9-18.7c3-15.8-1.7-32.1 8.9-45.9.6-.7.3-2.2-.8-1.5a139.3 139.3 0 0 1-36.2 14.8c-13.3 3-27.1 1.4-40.5 3.7-16.3 2.7-34.4 18.2-34.3 35.6 0 .5.2.7.5.8 0 .2.1.3.3.4 4.4 2.9 7.4 7.3 11.1 11.1.6.6 1.6-.4 1.8-1 1.5-4.2 1.8-8.8 3.9-12.8.2-.4.2-.7.1-.9 13.8-2.6 27.8-4.7 41.7-6.6-3.7 4.9-8.6 9-13.6 13a14 14 0 0 0-8.2-2.9c-.7 0-1.4.7-1.4 1.4 0 3.5-1 6.9-2 10.3v.6l-6.1 5c-3.2-1.6-6.5-3.5-10.2-3.7-.8 0-1.5.9-1.4 1.7.5 4.6 1 9.2 1 13.8v.3a2 2 0 0 1-.4.6c-.3.6-.3 1.3.5 1.4a112 112 0 0 0 39.9-1.3c-.2.3-.4.7-.3 1 .9 2.8 1.8 5.6 2.2 8.5.3 2.2-1.7 8.8-4.5 5-1.2-1.6-.9-3.9-.4-5.6.2-.6-.2-1.3-.9-1.1-10 2.5-5 16.9 3.3 18.1 5.2.8 9.1-5.5 10.1-9.7 1.4-5.3 1.5-13.3-1.6-18.3l4.4-1.5c9.4 7.7 3.7 20.3 2.8 30.3-.8 9 4.3 16.3 13.5 17.6 8.9 1.3 19-2 23.1-10.5 4.2-8.8-5.3-17.6-13.7-13.6-.5.3-1.5 1.8-.4 2.1 8 2 .5 12-5.7 10.8-5.4-1-3.1-10.6-2.6-14 1-6.1 2.8-11.9 1.3-18.1-1-4-4.3-7-6.4-10.5l2.7-1.7 2.7-1.9.2.1c6 1.4 7 4 6.7 9.8-.3 4.4.9 8 4.7 10.6Zm-83.4-40.4c-1.7 3.4-2.3 7.1-3.3 10.8-2.7-3-5.2-6.2-8.4-8.7l6.3-1.3 5.6-1.1-.2.4Zm21.1 12.9c.7-2.6 1.4-5.2 1.6-7.9 2 .3 3.8 1 5.5 2.2l-6.8 5.5-.3.2Zm-15.4 14-1.6 1.3c-.1-3.1-.4-6.3-.7-9.4 2.5.5 5 1.8 7.3 3a48 48 0 0 0-5 5.1Z" class="cls-3"/>
    <path d="M358 341.1c-2.8.7-4.2.9-4.2 3.2 0 2.3 5.3 2.5 7.1 2.3 3 0 8.2-1.6 4.6-4.8-1.7-1.6-5.2-1-7.4-.7Zm59.4 0c-2.8.7-4.2.9-4.2 3.2 0 2.3 5.3 2.5 7.1 2.3 3 0 8.2-1.6 4.6-4.8-1.7-1.6-5.2-1-7.4-.7Z" class="cls-1"/>
  </g>
  <g>
    <path d="M289.7 429.2a48.6 48.6 0 0 0-12.9-22.5c2.2-2.4 3.6-5.4 5.8-7.9.6-.6.8-2.2-.4-2.2h-21.9c3-3.6 6.2-7.1 8.5-11.2.3-.5.5-1.6-.4-1.8a47.2 47.2 0 0 0-25 1.4c1.8-5.3 3.7-10.6 6.2-15.7.4-.8.2-2.3-1-1.8-23.3 8.6-45.4 25-44.8 52.2-1 7.8-9.7 11.6-13.6 17.8a12.3 12.3 0 0 0 2.7 16.4c5.7 4.9 15.1 5.9 22.2 6.8l3.6.4c-.1 14.4-1.6 28.8-3 43.2-5.8.3-12.2.4-10.4 8.3 0 .3.3.6.7.6 5.4-.4 10.7-.4 16.1-.4.7 0 1.3-.7 1.4-1.4.8-8.2.2-16.4 1.3-24.6a705 705 0 0 0 3.1-24.9c3.9.2 7.9.3 11.8.3h3.1v.3c.9 7.8 1.7 15.7 2.9 23.4 1.3 8.7.8 17.5 1.6 26.2 0 .3.4.6.7.6 5.4 0 10.7 0 16.1.4.6 0 1.2-.6 1.3-1.1 1.7-7.7-4.1-7.6-10.1-7.8-.8 0-2-19-2.2-20.8-.6-7-1-14-1.1-21 13.1.3 27.8-.5 35.7-10.5 4.9-6.2 3.7-15.4 1.8-22.5Z" class="cls-3"/>
    <path d="M229.7 403.9c-4.3 3.6-4.9 9-4.3 13.6 1.2 7.8 8.1 9.8 15.1 9 7.5-.9 15.6-5.5 14.8-14.2a15 15 0 0 0-15.6-12.2c-2.9.3-5.8 1.4-8.1 2.6l-1.7 1.2Z" class="cls-1"/>
    <path d="M236.3 409.9c-1.6 1.3-1.8 3.3-1.6 5 .4 2.9 3 3.6 5.6 3.3 2.8-.3 5.8-2 5.5-5.2-.3-2.7-3.2-4.8-5.8-4.5-1.1.1-2.1.5-3 1l-.6.4Z" class="cls-3"/>
    <path d="M212.7 432.2c4-.9 4.9-.9 8.5 0 .4 2.7 1.3 5.8 2.7 8.1 1.3-1.8 2.7-4.5 4-6.7H257s1.8 3.7 2.2 6.7c4-5.8 4.9-8.5 13-5.8 4.9 1.8 9 4.9 6.3 10.7-2.2 5.4-9.8 7.2-14.8 7.2-8.5 0-9-2.7-13-8.5-1.3 1.8-2.2 4-2.2 6.7-8.5 0-11.6 1.8-13.4-7.2-4.5.4-4 5.4-9 6.3-3.1.9-7.6-.4-10.7-1.3-5.8-1.3-17.5-8.5-7.2-14.3l4.5-1.8Z" class="cls-1"/>
  </g>
  <g>
    <path d="M167.3 397.7c-4.8-3.3-12.6-2.3-18-1.5-9.5 1.4-18.7 4.2-28.4 4.4.5-1.9.7-3.8.6-5.8 13.9-.4 28.2-3.5 36.8-15.5 6.8-9.5 5.7-25.9-7.5-29.2-.8-.2-1.6.6-1.6 1.4-.1 3.4.4 6.7.9 10.1a15 15 0 0 1-6.3 15.4 58.6 58.6 0 0 1-24.8 8.8h-.2l-1.4-2.3c11.1-.5 20.7-11.3 23.2-21.5 1.1-4.6.8-8.4-2.9-11.6a30.4 30.4 0 0 0-21.5-7.2c-.9 0-1.9 1.3-1.2 2.1 4.6 4.9 12.2 9.2 13.7 16.1 1.5 6.8-15.8 12.5-20.8 14.1h-.2c-7.4-3.4-16.6-4-24.9-4a19 19 0 0 0-12.5 2.2h-.2c-5.9-1.9-17.5-5.2-19.1-12.2-1.4-6.3 10-13.2 13.6-17.1.5-.5.6-1.6-.3-1.7-7.2-.6-14 2.1-19.9 6-3.5 2.4-6.3 5.4-5.8 9.9 1.2 11.5 11.2 24.2 23.4 24.4l-.9 2.1a65 65 0 0 1-23.5-8.1 15.8 15.8 0 0 1-8-12.9c-.2-4.6 1.4-9.1 1.3-13.8 0-.6-.3-1-1-.8-5.4 1.4-9.1 5.9-11.4 10.8-2.5 5.4-1.1 11.2 1.4 16.3 7.1 14.4 24.8 17.5 39.3 17.7 0 1.9 0 3.9.2 5.8-9-.2-17.7-2.8-26.6-4.1-6-.9-14.4-2.2-19.8 1.5-8.2 5.6-5.6 17.2-1.1 24.5.4.6 1.3.2 1.6-.2 2-2.5 3.1-5.4 4.2-8.4 2.6-6.6 8.5-7.4 14.8-7.7 9.7-.4 19.1 3 28.8 2.6l.5-.1 1.4 2.2c-10.6 1.1-23.3 0-31.1 8.2-7 7.4.7 19.5 6.9 24.5.6.5 1.4-.1 1.7-.7 1.8-3.8 1.9-7.7 2-11.9.2-6.6 4.3-9.2 10.3-10 4.1-.5 8.3-.9 12.4-1.6 1.8-.3 4.3-.6 5.8-1.8 7.4 3.9 17 4.8 24.5 3.7 3.8-.6 7.6-2 11.2-3.9 1.5 1.6 4.8 1.8 6.6 2.2 4.5.9 9.1 1.4 13.7 2.1 5.1.9 8.8 3.4 9.5 8.8.6 4.7 0 9.1 2.1 13.5.3.6 1 .3 1.4 0 6.5-5.2 12.9-15.4 8.2-23.6-5.7-9.9-23.8-7.8-33.4-9.1l1.3-1.4c9.7.4 19.2-2.9 28.9-2.9 5.3 0 11.9.5 15.2 5.2 2.5 3.5 2.9 8 5.7 11.4.5.6 1.4-.3 1.7-.7 4.3-6.9 7.4-18.6-.7-24.1Z" class="cls-3"/>
    <path d="M71.1 402.3c-5.8-5.8-1.1-20.2 8-19.9.3 1.9.8 3.9 2.2 5.5a24 24 0 0 0 3.3-5.8c5.2.3 10.5 1.1 15.7 1.7l.6 5.5c2.2-.8 3.6-3 5.2-4.7 9.9 6.6 10.8 23.5-3.3 23.2-.3-2.2-1.7-6.4-3-8-1.9 1.9-1.4 5.5-1.9 8-4.7-1.4-9.7-1.4-14.4-1.9.6-3.3-.3-6.4-1.7-9.4-2.5 1.9-2.8 7.2-3.6 10.2-2.5-.3-6.1-2.5-7.2-4.4Z" class="cls-1"/>
  </g>
  <g>
    <path d="M596.6 251.7c-15.4 2.5-34.4 11.9-37.5 28.7-9.1-1.5-18.2-2.7-27.3-3.7-2.9-.3-5.9-.7-8.9-.9-.8-14.8-13.9-29.7-26.3-36.3-15.2-8-34.5 0-41.2 15.2-.4.8-.4 1.9.7 2 14.9 1.8 32.9-4.1 44.8 7.8 3 3 4.5 7.8 6.6 11.1-1.5.2-3 .4-4.4.8-6.6 1.6-9.5 7.1-10.9 13.2-6.2-3.5-24.8-12-27.6-1.8-2.7 10 19.7 9.9 25.3 11.6h.6c-.5 3.6-.9 7.3-1.1 11-5.5-.7-28.5.5-25.3 8.7 2.4 6 12.8 4.7 17.5 4.2 2.9-.3 5.3-1 7.5-2.8a62.2 62.2 0 0 0 1 12.3c.1.7.5.9 1 .8 4.1.5 8 .7 12 .7 5.4 0 4.2 8 3.7 11.3-.7 5.5-2.2 10.9-2.9 16.4-.5 3.8-1 8.4 1.6 11.5 5.9 7.2 9.1-9.1 9.5-11.9.8-5.6 1.1-11.3 1.4-16.9.2-3.1 0-6.8.5-10 8 .9 16.1 1.5 23.9 3.6 4.7 1.2 4.2 5.6 4 9.8-.2 5.8-1.2 11.5-1.2 17.2a15 15 0 0 0 4.6 11.1c3 2.8 7.2-1.1 8.1-4 1.1-3.4-.5-8.2-.9-11.6-.9-8.1-.3-16.4-.1-24.5 6.4 2.1 16.1 5 21.3.9 3.1-2.5 4.6-6.5 5.4-10.8a37.6 37.6 0 0 0 15.7 5.3c4.9.5 10.6-2.6 10.6-8.1 0-8.6-19.7-7-25.3-7v-1.2l.2-2.2c4.2-1 8.5-1.8 12.6-3.3 3.7-1.3 9.1-3.5 10-7.9.9-4.5-3.2-6.7-7.1-6.1-5.4.9-9.5 5.4-14.5 7.1.2-4-.1-7.9-1.5-11.6a12.6 12.6 0 0 0-6.5-6.9l.4-.6c9.4-19.2 37.6-16.9 54.8-12 1.3.4 2.5-1.1 2.3-2.3-2.5-17.9-22.8-20.4-37.4-18Zm-22.3 32-1.7-.6 1.7.3v.3Z" class="cls-3"/>
    <path d="M505.2 288.8c-2.4 4.7-5.9 19-3.6 23.7 4 7.9 25.3 8.3 32.4 9.1 7.9.8 19.4 4.3 26.9 2.8 7.5-1.6 12.6-19.4 9.5-26.5-2.8-6.3-26.5-5.5-33.6-6.7-9.5-1.2-21.3-3.2-30-3.2l-1.6.8Z" class="cls-1"/>
    <path d="M516.8 312.5c2.9-2.3 5.9-2.5 7.9.7.3.5.4 1 .9 1.3 1 .7 3.1-.3 4-.7 1.7-.9 2-3.3 3.1-.3.4 1.3 2.2 2.7 3.6 2.7 1.9 0 2.8-1.3 4.4-2.4 2.6-1.7 2.9-.2 4.2 2.4 2.3 4.7 7.5-1.4 9.4-2.9 1.5-1.3.6-3.8-1.2-2.3-1.5 1.3-4.6 4.7-5.9 1.6-.5-1.1-2.1-3.1-3.4-3.2-1.6-.2-3.4 1.6-4.6 2.3-3.1 2-3.1-1.2-4.9-2.7-.9-.7-2.6-.8-3.4 0-1.5 1.3-2.4 3.4-3.8 1.3-2.9-4.5-8.1-2.7-11.5 0-1.6 1.2-.6 3.8 1.2 2.3Zm-4.2-14c1.4 2.8 4.2 3.8 6.2.9 4.1-6-6.8-8.5-6.2-.9Zm37.4 3.7c1.4 2.8 4.2 3.8 6.2.9 4.1-6-6.8-8.5-6.2-.9Z" class="cls-3"/>
  </g>
  <g>
    <path d="M164.1 529.5a26.6 26.6 0 0 0-10.8-1.7c1.8-2.2 3.3-4.5 3.6-7.6 0-.5-.2-1.1-.7-1.3-5.9-1.1-9.1 3.5-12.5 7.5-7.3-3.4-16.6-1.3-23.8 1.2a35.4 35.4 0 0 0-16.8 11.4c-1.4-4.7-5.2-9-8.7-12.3a39.7 39.7 0 0 0-29.7-9.9c-8 .5-15.9 4.9-21.5 11.1H43c-4.4 0-7.6-2.8-9.9-6.2-1.6-2.3-4.3-8.5-1.8-11 3.5-3.5 8.7-8.5 9.2-13.7.3-3.6-2.6-7.7-6.4-5.5-2.5 1.4-3.6 4.1-4.6 6.7-.5-4.1-.8-9.2-4.5-9.8-7.8-1.2-8.1 9.2-7 14 1 4.3 2.8 8.1 3.1 12.6.3 4.5 0 8.8 2.2 13a21 21 0 0 0 10.5 8.7 6 6 0 0 0 3.9.3 22.5 22.5 0 0 0 1 19.7c4.3 7.7 12.4 7.4 20.1 8v.6c1.3 10.8-1.1 21.5-1.1 32.3a24 24 0 0 0-11 7.6c-.6.7-1 2.2.1 2.6a29.2 29.2 0 0 0 15.5 1.1c2.2-.5 6.3-.9 7-3.7.8-3.1-1.3-7.2-2-10.2a63.1 63.1 0 0 1 1.2-28c4.2 2.1 7.5 5.6 10.3 9.3l.8.9-.4.6c-.3.4-.5.9-.5 1.3.4 9.9-1 19.7-1.6 29.6 0 .7.3 1.3 1.1 1.3 6.9 0 13.7.9 20.5.5 1.3 0 2.3-1.4 2.2-2.6a7 7 0 0 0-4.2-5.9c-2.7-1.5-5.4-3.3-8.3-4.4-2.9-1.1-2-8.2-1.8-10.4l.3-3.7c1.4.9 2.8 1.7 4.3 2.4 10 4.7 20.3 1.2 27.2-6.9 6.3-7.4-.4-14.3-6.7-18.4l-5.9-3.4-.8-.2c-.5-1.1-.8-2.2-1-3.4l.5-.4c5.6-5.6 11-11.4 18.2-15a27.7 27.7 0 0 1 17.9-2c7.3 1.1 20.7 4.4 23.9-5 .2-.7 0-1.4-.6-1.7Z" class="cls-3"/>
    <path d="M93.1 572.7c2.6 5 7.5 6.8 11 1.7 7.3-10.7-12.1-15.1-11-1.7Zm-40.9-24.2a9.6 9.6 0 0 0 11.1-5.2c4.2-9.3-15.9-.8-11.1 5.2Zm20.6-11.2a9.7 9.7 0 0 0 11.4-4.6c4.7-9-15.8-1.7-11.4 4.6Z" class="cls-1"/>
    <path d="M79.9 577.8c1.8 0 3.4-3.6 1.2-3.6-1.8 0-3.4 3.6-1.2 3.6Z" class="cls-3"/>
  </g>
  <g>
    <path d="M621.9 130.3c.2-.6-.2-1.2-.9-1-5 1-10.2 2.8-15.4 1.9l-1.4-2.3c.8-4.5 2.7-8.7 2.9-13.3 0-.7-.6-.9-1.2-.7a27 27 0 0 0-10.6 6.5l-2.9-1.1c-1.3-3.5-1.7-7.2-3.2-10.6-.3-.7-1.2-.1-1.6.2-2.6 2.8-4.1 6.5-7 9.1h-2c-.5-1.5-1.6-3-2.4-4.2l-3.9-6.2c-.6-1-1.8.3-1.9 1-.5 4-1.9 7.6-4.5 10.8l-.2.3c-5 .9-9.7 1.8-14 2.3-1.2.1 1-7.5 1.3-8.4.5-2.2.9-4.5 1.5-6.7 1.3-5.2 2.7-10.4 3.5-15.7 1.3-8.6 0-17.8-9-21.4-4.4-1.7-9.7-1.4-12.3-6-2.9-4.9 3.1-13.2 3.9-18.2 1-6.6-.6-14.1-4.5-19.6-2.5-3.6-6-6-9.8-7.5-1.1-6.7-3.1-13-6.1-19.1-.5-1-1.7.2-1.9.7-2 5.4-4.6 10.6-5.8 16.3a51.3 51.3 0 0 0-41.4 23.1c-2.6 4.2-4 9.1-4.3 14.1 0 .4.2.7.6.8.1 3.5 1.4 6.8 2.7 10 .4.8 1.5 0 1.7-.5l4.1-8.2c1.1 1.7 3.6 6.1 4.1 6.7.6.7 1.4.1 1.7-.5a24 24 0 0 0 2.8-5.8c1.1 2.1 2.6 4 4.3 5.8.6.6 1.5-.4 1.7-.9.9-2.3 1.5-4.9 3.1-6.9a109 109 0 0 0 5 9.6c.4.6 1.2.3 1.6-.2 1.2-1.8 2.3-3.5 3.2-5.4.7 1.8 1.5 3.6 2.8 5.2.4.5 1.2 0 1.4-.4l3.3-4 .2 6c0 .4.2.9.7.8 3.3-.4 4-3.6 6.5-4.8.9 2.1.2 4.6-1.1 6.9a15.2 15.2 0 0 1-9.9 6.6v-.2c-1.5-2.6-2.8-5.2-4.5-7.7-.4-.6-1.2-.3-1.6.2-1.5 2.1-2.7 4.4-4 6.6l-3.1-5.8c-.4-.8-1.5 0-1.7.5a22 22 0 0 1-3.2 5.3c-.6-1.5-1.1-3-1.4-4.6-.2-.9-1.2-.5-1.6 0l-4.3 4.6-2.4-7.2c-.3-1-1.5-.4-1.8.2-.5.8-2.8 5.5-4.3 3.9-1.4-1.5-2.6-3.2-3.9-4.7-.6-.7-1.7 0-1.9.7l-.9 3.6a17.2 17.2 0 0 0-6.4-5.8c-.7-.4-1.5.2-1.7.9-.9 3-.7 6.1-.7 9.2l.1.6a64 64 0 0 0 22.7 28.9c10.4 6.6 22.4 5.4 33 0 5.4-2.7 9.9-6.6 15.6-8.5 7.3-2.4 12.8 2.2 14 9.2 1.8 11.3-2.3 22.7-2.5 33.9-.1 11.2-3 22.3-.5 33.6 1.4 6.6 9.6 5.2 14.7 5.2h3.9c-.2 4.6-3.7 18.8 1.9 18.6 3-.1 4-4.9 4.5-7 .8-3.5.8-7.5 1.7-11.1 5.2.3 10.5.7 15.8.6-1.3 4.8-7.4 21.4.4 20.2 3.3-.5 4.5-6.4 5.1-8.9.9-3.8 1.4-7.8 1.8-11.7 4.7-.5 9.2-1.5 13.5-3.3 6.2-2.7 7.6-9.2 8-15.3v-1.2c1.9-1.9 4.1-3.4 6.3-4.9 1.4-.9 3.7-1.8 3.7-3.7s-.2-.8-.7-.8c-3.1 0-7.3-.5-10.1-2a62 62 0 0 0-.8-4.2c4.6-3.7 10.2-7.1 12.1-13Z" class="cls-3"/>
    <path d="M511.6 27.7c-10-.6-10 12.8.6 10.2 9.3-2.2 2.6-10.3-.6-10.2Z" class="cls-1"/>
    <path d="M509.2 28.6c.6 3 .8 6.4-.3 9.4-.6 1.6 1.6 1.2 2.1 0 1.3-3.3 1.1-7.1.4-10.5-.3-1.5-2.4 0-2.2 1.2Z" class="cls-3"/>
  </g>
  <g>
    <path d="M205.5 49.5c-1.4-7.4-4.8-4-7 .1-1.6-.8-2.1-2.4-2.8-4-.4-.9-1.6.2-1.8.7-.5 1.7-1 3.2-2 4.6-1.2-1.5-2-3.2-3.4-4.6-.6-.5-1.5.3-1.6.9-.3 1.1-.6 2.2-.7 3.4-.3 2.3-3-3.3-2.9-3.1-.2-.7-.8-1.1-1.5-.7-2.6 1.3-4.4 7.5-2.4 9.9 2.8 3.3 11.4 1.2 12 5.7 1.7 12.9-17 10.1-24.6 12.1h-.2c-.2-1.6-.5-3.3-1.1-4.9-3.7-9.9-15.9-14-25.2-16.3a119 119 0 0 0-10.4-1.9v-.2c.6-4.9 5.6-10.7 1.6-15.4-.3-.3-.9 0-1.1.1-4.6 3.3-4.9 9.2-7.1 14l-.1.6-2.9-.3c1-5 6.5-26.2-.9-25-3 .5-3.8 6.3-4.2 8.4l-1.3 8.1c-.3 2-.2 5.4-1.4 7.1-.2.2-.2.4-.2.6l-7.7-1c.3-4.6 2.5-9.2 2-13.8-.2-1.6-1.8-5.3-4-3.5-2 1.7-2.3 5.2-2.6 7.6-.4 3.1-.3 6.3-.9 9.3h-3.2l-5.1.4c0-6-2.4-11.6-3.7-17.3-.6-2.7-1.6-8-4.9-8.5-3.5-.5-4 4.4-3.4 6.6 2.1 7 7.4 12.5 3.6 19.8l-12.2.8a31.3 31.3 0 0 0-26 17.2c-7.2-5.9-27.6-15.2-31.4-1.2-.7 2.7-.5 5.7-4.2 6.6-1.4.3-2.5.8-3.6 1.8-1.8 1.8-1.7 4.7-1.1 6.9.4 1.6 2.4 2.5 3.8 1.4 1.3-1.1 2.6-3.9 4.3-1.2a6 6 0 0 0 3.1 2.6c.6.3 1.3-.5 1.5-1 .5-1.3.9-2.6 1.5-3.7.9 1.9 1.9 4.4 4.2 3.8 1-.2 1.8-.4 2.4-1.3.7-1.3.9-1.5 2.1-.2 1.5 1.5 3.7 1.7 5-.3 1.7-2.5 1-5.7-.2-8.3-1.4-2.9-6.2-1.9-8.7-1.7-1.6.2-1.2.6-1.2-1.6 0-3.7 3.9-3 5.7-2.6 2.2.5 4.2 1.5 6 2.9 2.8 2.1 6.4 4.6 8.9 3.8a21 21 0 0 0 .9 10.2c3.1 9 13.8 14.3 22.1 17.4a84 84 0 0 0 18.1 4.3c3 3.1 3.7 6.4 4.2 10.5.3 2.7.8 6 2.6 8.1 3.2 3.8 6.8 2.9 9.1-1.1 1.1-1.9.8-3.9.3-5.9-.1-.6-1-7 0-5.7l1.6 2.6c1.5 2.3 4.3 2.7 5.6.3 1.2-2 4.2-5 5.3-1.4.5 1.8 0 4.1-.3 5.9-.2 1.6-.9 5.7 1.7 6 9.8.9 7.3-13.7 7.7-20l8-1c10.5-1.4 21-3 29.3-10.1 3.8-3.3 6.6-7.6 7.9-12.3 8.2-.2 20.1 2.6 26.6-4 5.1-5.1 5.7-12.6 6.4-19.4 5-.7 7.6-3.1 6.6-8.8Z" class="cls-3"/>
    <path d="M64.3 63.5c-9.5 4.3-11.7 15-4.3 22.1 7.1 6.4 16.6 7.1 25.8 8 13.2 1.2 26.4 1.2 39.6 1.2s21.8-2.5 27.9-9.2c16.3-17.5-21.2-22.4-29.8-23-21.4-1.1-40.1-.2-56.2 0l-3.1.9Z" class="cls-1"/>
    <path d="M76.3 61.8c-1.5 0-3-.3-4.5 0l-.6.3-.2-.7c-.4-1.1-2.1.5-1.8 1.4.6 1.6.3 3.5 1 5.1.8 1.9 3.4 1.4 5 1 .6-.1.9-.7 1-1.2.3-1.7.6-3.5.6-5.2 0-.4-.2-.8-.6-.8Zm14.3.4a11 11 0 0 0-4.8-.3c-.6 0-1.3.6-1.3 1.2v5.8c0 .3 0 .6.4.7 1.8.5 3.6.2 4.7-1.5 1-1.5 1-3.4 1.3-5 0-.3 0-.9-.4-1Zm15.2-.7c-1.4 0-2.7-.2-4.1 0-.4-.6-1.8.1-1.8 1v5.8c0 .4.2.8.6.8 1.4 0 2.9 0 4.2-.3.5-.1 1-.7 1-1.2 0-1.7 0-3.4.6-5 .2-.5 0-1-.6-1Z" class="cls-3"/>
    <path d="M122.6 61.6c-1.4-.4-2.7-.9-4.1-.6-.4 0-.3-.3-.4 0-.6-.4-2.2.2-2.1 2.3 0 1.8.3 3.5.3 5.3 0 .3 0 .7.4.7 1.9.4 4 .5 5.1-1.4 1-1.6.8-3.6 1.2-5.4 0-.3 0-.9-.4-1Zm15.4 3.2c0-.3-.3-.5-.6-.5-1-.1-1.8-.8-2.8-.9-.3 0-.7.2-.9.5 0-.4-.5-.6-.8-.5-.6.2-1 .7-1 1.2-.3 1.8-.6 3.7-.6 5.5 0 .3 0 .6.4.7 1.7.5 3.5.6 4.9-.7 1.5-1.4 1.6-3.5 1.5-5.4Z" class="cls-3"/>
    <path d="M64.1 54.9c-2.1 1.1-2.9 3.2-.7 4.8 4.6 3.2 6.5-5.3.7-4.8Zm75 1.6c-2.1 1.1-2.9 3.2-.7 4.8 4.6 3.2 6.5-5.3.7-4.8Z" class="cls-1"/>
  </g>
  <g>
    <path d="M313.8 171c-1.5-8.2-3.5-16.9-10.9-21.6-7.6-4.8-18-4.1-26.6-3.3-9.7.8-19.7 1.3-29.4 2.8-10.7 1.7-18.9 7-22.5 17.5-2.3 6.8-2.1 14-2.5 21.1-.5 9.2-1.9 18.5-.1 27.7 1.1 5.5 3.7 10.8 8.9 13.3 6 2.8 12.5 2.8 18.2 6.5 13.2 8.4 7.7 31.3 3.1 42.9l-.2.7v.6c0 4.1.2 8.3-.2 12.4-.5 5.1-2.5 10.3-4.2 15.1-2.8 8.1-6.1 16-9.1 24.1l-.5.5c-.8.8-1 2.4.1 2.9 4.4 1.9 9 3.4 13.6 4.6 1.3.3 2.4-.8 2.8-1.9l2.2-6.6c.2-.7.1-1.6-.7-1.9-1.8-.6-3.6-1.2-5.4-1.6 1.3-3.1 2.3-6.3 3.2-9.5 1.2-4.2 3.2-8 4.9-12 3-7.1 3.4-14.8 4-22.4l5 .4c12.4 15.9 8.5 37.6 7.1 56.2 0 .8.4 1.4 1.2 1.5l9.8.9c1.7.1 4.1.9 5.9.4 4-1.1 4.7-6.9 5.6-10 .2-.8 0-2-1.1-2-2.7.1-5.3.7-8 .9-.7-5.3.3-10.5.7-15.7a46 46 0 0 0-1.7-14.3c-2-8.1-5-17-11.2-22.8a91 91 0 0 0 .8-34.5c-1.2-9.5-5.5-18.4-5.2-28.2.4-11.2 15.2-8.9 22.8-8.8 7.7 0 15.7-1.6 19.4-9 3.8-7.7 1.6-18.7 0-26.7Z" class="cls-3"/>
    <path d="M306.8 170.6c-.4-3.7-1-9.8-3.9-12.6-2.9-2.7-6.6-2.6-10.3-2.8-7.2-.4-14.5.7-21.6 1.4-9.4 1-20-.4-28.5 4.5-.4.1-.8.4-1.2.9-3.8 5-6 12.9-5.6 19.2.4 7.7 7.1 8.7 13.5 7.6l5.3-1 2.8-.5c3.4-.4 1.7 4.2 1.3 5.3-.8 2.6-1.1 6.1 1.9 7.5 2.6 1.2 5 .2 7.1-1.5l.2-.2c.9 1.3 2.2 2.1 4.3 2.3 3.2.3 4.9-1.8 5.8-4.7 1.3 2.7 3.4 4.5 6.9 3.2 4.8-1.8 5.5-9.2 5.2-14.5 5.5 0 12.5.9 15.6-4.1 1.9-3.1 1.6-6.6 1.3-10Z" class="cls-1"/>
    <path d="M249.6 169.3c-2.4.6-3.7.8-3.7 2.8 0 2 4.6 2.2 6.2 2 2.6 0 7.1-1.4 4-4.2-1.5-1.4-4.5-.8-6.5-.6Zm36.9-2.5c-2.4.6-3.7.8-3.7 2.8 0 2 4.6 2.2 6.2 2 2.6 0 7.1-1.4 4-4.2-1.5-1.4-4.5-.8-6.5-.6Z" class="cls-3"/>
  </g>
  <g>
    <path d="M531.3 591.7c-1.4-3.8-6.2-3-9.3-1.7a22.6 22.6 0 0 1-3.6-7.5c13.7-8.7 10.6-29.2 1.7-42a34.1 34.1 0 0 0-12.7-10.8c1.2-6.3 3.8-12.1 3.7-18.6 0-1-1-1.2-1.7-.6-5.2 4.2-8.5 10-11.9 15.7a53 53 0 0 0-30.4 1.6c-4.7 1.8-8.1 5.4-11.6 8.9a42 42 0 0 1-19.1 10c-12.8 3.2-23.9-4.2-34.8-9.9-18-9.3-38.1-6.8-56.2.8a37.7 37.7 0 0 1-17.3 4.2c-4.9-.3-9.8-3-14.2-4.9-7-2.9-13.8-4.5-20.8-2.1-3.6-3.5-7.5-6.9-10.7-10.8-.7-.9-2.2.7-2.2 1.5 0 5.7 1 11.4.4 17.1a47.8 47.8 0 0 0-7.5 13.1c-3.2 8.1-4 16.8 3 23.1 3.6 3.2 8.5 4.9 13.5 5.5 1.1 4.6-.3 9.3.2 14-2.4 2-4.3 5-4 8.2.3 2.9 2.8 1.5 4.6.1.9 2 2.6 3.9 4.9 3.2 1.6-.5 2-1.8 1.8-3.2 3.5.6 7.2-.8 5.6-5.4-.4-1.1-1.3-1.6-2.3-2-2.3-1.1-3.7-.6-4.4-3.6-.8-3.6-.2-7.3-.5-11 2.5 0 4.9-.3 7.2-.7 6.1-1 11.8-3.4 17.5-6.1.5 4.1-.5 8.2 0 12.3-2.4 2-4.3 5-4 8.2.3 2.9 2.8 1.5 4.6.1.9 2 2.6 3.9 4.9 3.2 1.6-.5 2-1.8 1.8-3.2 3.5.6 7.2-.8 5.6-5.4-.4-1.1-1.3-1.6-2.3-2-2.3-1.1-3.7-.6-4.4-3.6-.9-4 0-8.2-.7-12.2 4.3-2.1 8.5-4.2 12.9-5.9a75.8 75.8 0 0 1 37.3-4.9c11.1 1.9 15.9 12 23.8 18.6 7.6 6.4 17.6 5 25.9.8 10.4-5.1 18.4-13.4 29.8-16.7 7.7-2.2 13.5-.3 18.3 5.8 2.9 3.6 5.7 6.9 9.8 9.2-1.5 4.2-4.8 7.4-6.8 11.3-3 .4-6.6 2-7.7 5-1.1 3 1.5 3.3 3.7 2.9-.2 2.1 0 4.3 2.2 5.3 1.5.7 2.5-.5 3.1-1.9 1 1.1 2.2 1.9 3.8 2 2.1.2 3.8-2.6 3.9-4.3.3-3.6-4.2-4.1-2.8-8.2 1.2-3.6 3.9-6.5 5.4-9.9a39.1 39.1 0 0 0 22.2 1.4l.1.5c1.9 3.3 5.5 7.2 5.5 11.3 0 2.8-1 5.1.9 7.5 2.6 3.3 5.1-.3 6.3-3.4 1.8 1.4 4.3 2.2 5.9 0 1.5-2.2.8-4-.7-5.4 1.9-.7 3.5-2.1 2.7-4.4Z" class="cls-3"/>
    <path d="M289.1 546.9c-5.6 4.1-6.6 9.8-7.4 15.7-1.2 9 5.1 14.1 14.1 14.9 24 1.2 30.6-36.9 5.5-35.4-4.3.4-7.5 2.4-11.4 3.5l-.9 1.2Zm193.3-5.8c-5.3 16.1-.7 39.1 22.8 32.8 20.8-5.5 9.4-36.9-8.2-38.5-4.3 0-11.4.6-14.1 4.1l-.4 1.6Z" class="cls-1"/>
    <path d="M488.3 558.2c-2.6 1.3-3.6 3.9-.9 5.8 5.6 3.9 7.9-6.3.9-5.8Zm-200 3.3c-2.6 1.3-3.6 3.9-.9 5.8 5.6 3.9 7.9-6.3.9-5.8Zm221.2-8c-1.3.7-1.8 2-.4 2.9 2.9 2 4-3.2.4-2.9Zm-199.8 1.7c-1.3.7-1.8 2-.4 2.9 2.9 2 4-3.2.4-2.9Z" class="cls-3"/>
  </g>
  <g>
    <path d="M185.8 240.9c-.2-7.2-8.3-5.8-13.3-3 1.5-3.6 2.9-6.9.9-10.9-.2-.3-.6-.5-1-.3-5.7 2-7.6 6.3-8.7 11.7-8.2.4-16.2 3.1-24.5 2.5-6-.4-15.1-2.1-18.2-7.8.6-7.3-1.8-15-5.4-21-3-5-6.8-11.2-2.7-16.8a13 13 0 0 1 11.4-4.3c2.7.5 5.3 4.7 7.2 6.5 4 3.7 15.5 4.5 17.8-1.8 1.7-4.7.6-10.6-3.3-13.9-6.5-5.7-18.5-3.7-26.1-2.7a20.2 20.2 0 0 0-17.7 16c-1.1 4.7-1.2 8.8.3 13.4.6 2 1.7 3.6-1 2.8-2.4-.7-4.7-2.2-6.8-3.4-2.9-1.6-5.4-3.2-8.7-3.7-3.2-.5-6.5 0-9.7.4l-4.9.4c-3.5.2-2.2-2.8-1.7-5.3 1.2-5.7 4.8-10.6 5.9-16.3.9-4.6-2-8.7-5.3-11.5a27.5 27.5 0 0 0-25.5-4.6c-7.9 3.3-8.5 11.3-.8 15.3 3.5 1.8 7 .7 10.3-1 2.3-1.2 4.6-3 7.2-3.3 4.6-.5 4 6.9 3.4 9.4-1.3 5.8-4.5 11.3-6.3 17-1.6 5.2-4.5 10-5.7 15.3v.2c-.6 5.1-.6 9.9.5 14.3l-.4.5c-4 7.9-9 14.5-10.6 23.4A49.6 49.6 0 0 0 44 281c-3.5-2.3-6.4-4.1-9.7.9-2.3 3.5 1.6 5.7 5 7.3-3.9.9-8.4 2.5-8 6.5.5 5 6.3 4.4 10.8 3.1-2.2 3.6-1.7 8.4 3.6 9.6 5.8 1.4 8.4-5.6 8.7-10.6 3.6 1 8.4.6 10.2-2.9 2.8-5.2-4.6-5.6-8-5.9-3.8-.4-3.9-8.8-4.2-11.6-.7-6.4-.2-12.8 1.3-19 1.1-4.6 5.2-6.9 6.6-11.2.1-.5.2-1 .1-1.4a54.8 54.8 0 0 0 35.6 9.4c8.6-.7 18.1-5 22.3-12.9 0 .3.2.6.4 1 1.7 2.9 7.4 4.5 10.3 5.3 5 1.3 10.5.8 15.5.2 1.4-.2 16.9-2.3 16.4-.4-1.2 4.2-5.1 13.6 3.2 13.7 3.1 0 4.3-3.9 4.7-7.3 2.6 3 6.6 5.9 9.5 2.1 3.2-4.1 1.9-6.9-1.1-8.8 4.2-.7 8.5-2.5 8.4-6.8Z" class="cls-3"/>
    <path d="M64 217.8c3.1-1.4 7.1-2.6 10.5-1.1 3.4 1.7 4.3 5.4 7.4 6.8 7.1 2.8 15.6-3.7 22.2-4.5 8.8-1.1 15.6 7.1 9.1 14.2s-14.8 5.7-21.6.9c-8.5-5.7-12.8 1.1-21.6.3-5.7-.6-12.8-12.8-6.9-16l.9-.5Z" class="cls-1"/>
    <path d="M76.9 219c.2-.3.3-.9.1-1.2a7.2 7.2 0 0 0-5.8-2.9c-.5 0-.5.1-1.5.4-1.6.5-2.4 1-2.1 2.1.8 2.9.7 6 1.8 8.8.3.9 1.5.1 1.8-.2 2.1-2.1 4-4.3 5.6-6.8Zm27.4-3c2.3 0 4.4.2 5.8 2.1.2.3 0 .9-.1 1.2-1.5 2.9-4 4.7-6.5 6.8-.4.3-1.3.6-1.6 0a32 32 0 0 1-1.8-9.2s2.1-.9 4.1-.9Zm-4.3 14.9c-.4-.8-1.4-.2-1.8.2a23.3 23.3 0 0 1-4.5 3.8c-.6.3-1.1 1-1 1.7 0 .4 0 0 .6.8 0 .4.3.5.7.6 2.1.7 3.9 1.9 6.2 1.7.9 0 1.7-1 1.6-1.9-.3-2.4-.6-4.9-1.8-7.1ZM74.7 235c1.5 0 3.3-.6 4.8-1 .9-.2 1.5-1.3 1.2-2.1-.9-2.3-2.3-4.3-4.1-5.9-.8-.7-1.8.4-2 1.1a37 37 0 0 1-3.6 6.8c-1 1.6.7 1.3 2.1 1.2h1.6Z" class="cls-3"/>
    <path d="M142.8 184.2a7.6 7.6 0 0 0-8.4 0c-2.4 2.8-2.3 6.2.9 8.3 2.8 1.8 7 2 9.4-.5 2.3-2.4.8-6.4-1.6-8.1Zm-95.3-14.7-.4.2-.3.3c-1.5 1.7-2.4 4.9-.6 6.8 1.9 1.9 5.4 1.5 7.5.1 2.3-1.5 3.3-4.7 1.1-6.9-2.1-2.2-4.9-2-7.4-.6Z" class="cls-1"/>
    <path d="M49.5 172.2c-.5.4-.6 1-.5 1.6.1.9.9 1.1 1.7 1 .9 0 1.8-.6 1.7-1.6-.1-.8-1-1.5-1.8-1.4l-.9.3h-.2Zm87.7 14.7c-.7.6-.8 1.5-.7 2.3.2 1.3 1.4 1.7 2.5 1.5 1.3-.1 2.6-.9 2.5-2.4-.1-1.2-1.5-2.2-2.6-2-.5 0-1 .2-1.4.4l-.3.2Z" class="cls-3"/>
  </g>
</svg>