<svg xmlns="http://www.w3.org/2000/svg" version="1.1" xmlns:xlink="http://www.w3.org/1999/xlink" xmlns:svgjs="http://svgjs.com/svgjs" width="1000" height="1000"><rect width="1000" height="1000" rx="400" ry="400" fill="#f26822"></rect><g transform="matrix(7,0,0,7,150,150)"><svg xmlns="http://www.w3.org/2000/svg" version="1.1" xmlns:xlink="http://www.w3.org/1999/xlink" xmlns:svgjs="http://svgjs.com/svgjs" width="100" height="100"><svg xmlns="http://www.w3.org/2000/svg" version="1.1" viewBox="0 0 100 100">
  <defs>
    <style>
      .cls-1 {
        fill: #f26722;
      }

      .cls-1, .cls-2 {
        stroke-width: 0px;
      }

      .cls-2 {
        fill: #fff;
      }
    </style>
  </defs>
  <g id="Layer_2" data-name="Layer 2">
    <rect class="cls-1" width="100" height="100"></rect>
  </g>
  <g id="Layer_1" data-name="Layer 1">
    <path class="cls-2" d="M42.3,25.54c-1.92-1.81-2.88-4.1-2.88-6.89s.96-5.08,2.88-6.89c1.92-1.81,4.35-2.71,7.28-2.71s5.36.9,7.28,2.71c1.92,1.81,2.88,4.1,2.88,6.89s-.96,5.08-2.88,6.89-4.35,2.71-7.28,2.71-5.36-.9-7.28-2.71ZM42.13,34.46h14.91v54.77h-14.91v-54.77Z"></path>
    <text svgjs:data="{&quot;leading&quot;:&quot;1.3&quot;}"></text>
  </g>
</svg></svg></g></svg>